<svg xmlns="http://www.w3.org/2000/svg" viewBox="0 0 300 300" enable-background="new 0 0 300 300"><path d="M150 0c-82.8 0-150 67.2-150 150s67.2 150 150 150 150-67.2 150-150-67.2-150-150-150zm-120 150c0-38.9 18.5-73.5 47.2-95.4-2.2 5.4-3.4 11.4-3.4 17.9 0 21.6 12.1 31.6 36.9 38.1 15.6 4 23.1 7.3 23.1 18.3 0 8.1-6.7 14.2-17.1 14.2-11 0-21.7-6.4-32.7-18.9l-16.9 27.9c14.8 14 29.4 20.2 48.9 20.2 5 0 10-.5 14-1.4v97.3c-57-9.4-100-58.7-100-118.2zm135 22h7.7c15.2 0 23.9 3 23.9 16.3s-8.3 16.7-24.2 16.7h-7.4v-33zm0 97v-34h15.9c12.9 0 23.5-.7 32.9-6.3 12.3-7.3 19.1-21 19.1-39.3 0-17.7-7.1-31.8-19.2-39.5-10.8-6.9-24.4-6.9-41.8-6.9h-6.6c2.2-6 3.3-12.1 3.3-18.9 0-25.4-13.5-34.6-37.9-41.1-12.5-3.3-21.9-5.4-21.9-15.3 0-6.5 6-11.6 15.2-11.6 8.5 0 17.7 3.6 26.4 11l11.7-26.9c-6.6-4.6-13.6-7.8-21.2-9.8 3-.2 6-.3 9-.3 66.3 0 119.9 53.7 119.9 120 .1 61-45.8 111.5-104.8 118.9z"/></svg>
